<svg width="32" height="32" viewBox="0 0 32 32" fill="none" xmlns="http://www.w3.org/2000/svg">
<path d="M17.7778 32H10.6667V10.6667H17.7778V14.2222C18.5264 13.2698 19.4765 12.4949 20.5599 11.953C21.6434 11.4111 22.8333 11.1157 24.0444 11.088C26.1624 11.0997 28.1894 11.951 29.6807 13.455C31.1721 14.959 32.0061 16.993 32 19.1111V32H24.8889V20C24.7513 19.0392 24.2714 18.1605 23.5374 17.5254C22.8034 16.8904 21.8648 16.5419 20.8942 16.544C20.4598 16.5577 20.0327 16.6591 19.6384 16.8419C19.2442 17.0248 18.8909 17.2854 18.5999 17.6082C18.3088 17.931 18.086 18.3092 17.9447 18.7202C17.8034 19.1312 17.7467 19.5665 17.7778 20V32ZM7.1111 32H0V10.6667H7.1111V32ZM3.55555 7.1111C2.61256 7.1111 1.70819 6.7365 1.0414 6.06971C0.374602 5.40291 0 4.49854 0 3.55555C0 2.61256 0.374602 1.70819 1.0414 1.0414C1.70819 0.374602 2.61256 0 3.55555 0C4.49854 0 5.40291 0.374602 6.06971 1.0414C6.7365 1.70819 7.1111 2.61256 7.1111 3.55555C7.1111 4.49854 6.7365 5.40291 6.06971 6.06971C5.40291 6.7365 4.49854 7.1111 3.55555 7.1111Z" fill="#7CD854"/>
</svg>
