<svg width="35" height="41" viewBox="0 0 35 41" fill="none" xmlns="http://www.w3.org/2000/svg">
<path d="M10.1121 19.8974C7.96711 27.5319 12.0784 36.878 14.4022 40.5968C8.28887 38.8763 3.1855 32.2632 1.39798 29.1718C-1.7123 21.5372 1.08516 15.6858 2.87268 13.7144C6.73371 9.09066 13.3296 9.27883 16.145 9.95089C11.8549 13.9295 10.3356 18.2396 10.1121 19.8974Z" fill="url(#paint0_linear_158_32)"/>
<path d="M11.989 21.2415C10.4875 30.2739 15.2065 38.1774 17.7538 41C21.9365 40.6774 26.9148 37.0125 28.881 35.2203C37.0321 28.4459 35.3161 19.4045 33.4392 15.7306C29.7927 9.38636 23.6972 9.23403 21.1053 9.95089C20.8908 6.40242 23.3397 4.44001 24.591 3.90236C25.7708 3.47224 27.2276 3.45432 27.8085 3.49913C28.7738 3.06901 28.9257 2.15501 28.881 1.75177C28.881 0.78401 28.166 0.452461 27.8085 0.407657C22.3387 -0.0224609 19.8988 3.1855 19.3625 4.84324C14.858 -1.71605 9.62056 -0.219598 7.56491 1.34854C8.20842 8.55301 14.8937 9.18922 18.1559 8.60677V11.1606C13.9732 14.1714 12.3018 19.1357 11.989 21.2415Z" fill="url(#paint1_linear_158_32)"/>
<defs>
<linearGradient id="paint0_linear_158_32" x1="17.5" y1="0" x2="17.5" y2="41" gradientUnits="userSpaceOnUse">
<stop stop-color="#96D481"/>
<stop offset="0.336458" stop-color="#83D38C"/>
<stop offset="0.680208" stop-color="#68CB9D"/>
<stop offset="1" stop-color="#4EC6AB"/>
</linearGradient>
<linearGradient id="paint1_linear_158_32" x1="17.5" y1="0" x2="17.5" y2="41" gradientUnits="userSpaceOnUse">
<stop stop-color="#96D481"/>
<stop offset="0.336458" stop-color="#83D38C"/>
<stop offset="0.680208" stop-color="#68CB9D"/>
<stop offset="1" stop-color="#4EC6AB"/>
</linearGradient>
</defs>
</svg>
